<mxfile modified="2024-04-05T10:04:07.788Z" host="app.diagrams.net" agent="Mozilla/5.0 (Windows NT 10.0; Win64; x64) AppleWebKit/537.36 (KHTML, like Gecko) Chrome/123.0.0.0 Safari/537.36" etag="v8Dx5xyl8Y2GPjOvVDXB" version="24.2.2" type="github">
  <diagram id="Ht1M8jgEwFfnCIfOTk4-" name="Page-1">
    <mxGraphModel dx="2669" dy="1573" grid="1" gridSize="10" guides="1" tooltips="1" connect="1" arrows="1" fold="1" page="1" pageScale="1" pageWidth="1169" pageHeight="827" math="0" shadow="0">
      <root>
        <mxCell id="0" />
        <mxCell id="1" parent="0" />
        <mxCell id="UEzPUAAOIrF-is8g5C7q-175" value="AWS Cloud" style="points=[[0,0],[0.25,0],[0.5,0],[0.75,0],[1,0],[1,0.25],[1,0.5],[1,0.75],[1,1],[0.75,1],[0.5,1],[0.25,1],[0,1],[0,0.75],[0,0.5],[0,0.25]];outlineConnect=0;gradientColor=none;html=1;whiteSpace=wrap;fontSize=12;fontStyle=0;shape=mxgraph.aws4.group;grIcon=mxgraph.aws4.group_aws_cloud_alt;strokeColor=#232F3E;fillColor=none;verticalAlign=top;align=left;spacingLeft=30;fontColor=#232F3E;dashed=0;labelBackgroundColor=#ffffff;container=1;pointerEvents=0;collapsible=0;recursiveResize=0;" parent="1" vertex="1">
          <mxGeometry x="-320" y="-760" width="1160" height="630" as="geometry" />
        </mxCell>
        <mxCell id="R6po1JSqciU4HGjQCoPE-6" style="edgeStyle=orthogonalEdgeStyle;rounded=0;orthogonalLoop=1;jettySize=auto;html=1;" edge="1" parent="UEzPUAAOIrF-is8g5C7q-175" source="R6po1JSqciU4HGjQCoPE-7" target="UEzPUAAOIrF-is8g5C7q-181">
          <mxGeometry relative="1" as="geometry" />
        </mxCell>
        <mxCell id="R6po1JSqciU4HGjQCoPE-1" value="Convert base64 to &lt;br&gt;audio and play in FE" style="outlineConnect=0;fontColor=#232F3E;gradientColor=#F34482;gradientDirection=north;fillColor=#BC1356;strokeColor=#ffffff;dashed=0;verticalLabelPosition=bottom;verticalAlign=top;align=center;html=1;fontSize=12;fontStyle=0;aspect=fixed;shape=mxgraph.aws4.resourceIcon;resIcon=mxgraph.aws4.service_catalog;labelBackgroundColor=#ffffff;" vertex="1" parent="UEzPUAAOIrF-is8g5C7q-175">
          <mxGeometry x="980" y="440" width="78" height="78" as="geometry" />
        </mxCell>
        <mxCell id="R6po1JSqciU4HGjQCoPE-2" value="" style="edgeStyle=orthogonalEdgeStyle;rounded=0;orthogonalLoop=1;jettySize=auto;html=1;startArrow=none;startFill=0;endArrow=open;endFill=0;strokeColor=#808080;strokeWidth=2;" edge="1" parent="UEzPUAAOIrF-is8g5C7q-175" source="R6po1JSqciU4HGjQCoPE-8" target="R6po1JSqciU4HGjQCoPE-1">
          <mxGeometry relative="1" as="geometry">
            <mxPoint x="228" y="-504" as="sourcePoint" />
            <mxPoint x="770" y="-484" as="targetPoint" />
          </mxGeometry>
        </mxCell>
        <mxCell id="UEzPUAAOIrF-is8g5C7q-181" value="Received text from API&lt;br&gt;showing in FE" style="outlineConnect=0;fontColor=#232F3E;gradientColor=#F34482;gradientDirection=north;fillColor=#BC1356;strokeColor=#ffffff;dashed=0;verticalLabelPosition=bottom;verticalAlign=top;align=center;html=1;fontSize=12;fontStyle=0;aspect=fixed;shape=mxgraph.aws4.resourceIcon;resIcon=mxgraph.aws4.cloudformation;labelBackgroundColor=#ffffff;" parent="UEzPUAAOIrF-is8g5C7q-175" vertex="1">
          <mxGeometry x="170" y="430" width="70" height="70" as="geometry" />
        </mxCell>
        <mxCell id="R6po1JSqciU4HGjQCoPE-16" style="edgeStyle=orthogonalEdgeStyle;rounded=0;orthogonalLoop=1;jettySize=auto;html=1;" edge="1" parent="UEzPUAAOIrF-is8g5C7q-175" source="R6po1JSqciU4HGjQCoPE-18" target="UEzPUAAOIrF-is8g5C7q-179">
          <mxGeometry relative="1" as="geometry" />
        </mxCell>
        <mxCell id="UEzPUAAOIrF-is8g5C7q-182" value="&lt;b&gt;&lt;font style=&quot;font-size: 14px;&quot;&gt;received Audio from &lt;br&gt;TranscribeController from audioVideo&lt;/font&gt;&lt;/b&gt;" style="outlineConnect=0;fontColor=#232F3E;gradientColor=#F34482;gradientDirection=north;fillColor=#BC1356;strokeColor=#ffffff;dashed=0;verticalLabelPosition=bottom;verticalAlign=top;align=center;html=1;fontSize=12;fontStyle=0;aspect=fixed;shape=mxgraph.aws4.resourceIcon;resIcon=mxgraph.aws4.service_catalog;labelBackgroundColor=#ffffff;" parent="UEzPUAAOIrF-is8g5C7q-175" vertex="1">
          <mxGeometry x="580" y="40" width="78" height="78" as="geometry" />
        </mxCell>
        <mxCell id="R6po1JSqciU4HGjQCoPE-8" value="&lt;font style=&quot;font-size: 18px;&quot;&gt;Translate&lt;/font&gt;" style="text;html=1;align=center;verticalAlign=middle;resizable=0;points=[];autosize=1;strokeColor=none;fillColor=none;" vertex="1" parent="UEzPUAAOIrF-is8g5C7q-175">
          <mxGeometry x="780" y="359" width="100" height="40" as="geometry" />
        </mxCell>
        <mxCell id="R6po1JSqciU4HGjQCoPE-10" value="" style="edgeStyle=orthogonalEdgeStyle;rounded=0;orthogonalLoop=1;jettySize=auto;html=1;" edge="1" parent="UEzPUAAOIrF-is8g5C7q-175" source="UEzPUAAOIrF-is8g5C7q-179" target="R6po1JSqciU4HGjQCoPE-7">
          <mxGeometry relative="1" as="geometry">
            <mxPoint x="570" y="286" as="sourcePoint" />
            <mxPoint x="245" y="-480" as="targetPoint" />
          </mxGeometry>
        </mxCell>
        <mxCell id="R6po1JSqciU4HGjQCoPE-7" value="Transcribe" style="text;html=1;align=center;verticalAlign=middle;resizable=0;points=[];autosize=1;strokeColor=none;fillColor=none;perimeterSpacing=1;fontSize=18;" vertex="1" parent="UEzPUAAOIrF-is8g5C7q-175">
          <mxGeometry x="340" y="359" width="110" height="40" as="geometry" />
        </mxCell>
        <mxCell id="UEzPUAAOIrF-is8g5C7q-179" value="Translate /transcribe API" style="outlineConnect=0;fontColor=#232F3E;gradientColor=#F54749;gradientDirection=north;fillColor=#C7131F;strokeColor=#ffffff;dashed=0;verticalLabelPosition=bottom;verticalAlign=top;align=center;html=1;fontSize=12;fontStyle=0;aspect=fixed;shape=mxgraph.aws4.resourceIcon;resIcon=mxgraph.aws4.organizations;labelBackgroundColor=#ffffff;" parent="UEzPUAAOIrF-is8g5C7q-175" vertex="1">
          <mxGeometry x="580" y="340" width="78" height="78" as="geometry" />
        </mxCell>
        <mxCell id="R6po1JSqciU4HGjQCoPE-17" style="edgeStyle=orthogonalEdgeStyle;rounded=0;orthogonalLoop=1;jettySize=auto;html=1;entryX=0.01;entryY=0.511;entryDx=0;entryDy=0;entryPerimeter=0;" edge="1" parent="UEzPUAAOIrF-is8g5C7q-175" source="UEzPUAAOIrF-is8g5C7q-179" target="R6po1JSqciU4HGjQCoPE-8">
          <mxGeometry relative="1" as="geometry" />
        </mxCell>
        <mxCell id="R6po1JSqciU4HGjQCoPE-19" value="" style="edgeStyle=orthogonalEdgeStyle;rounded=0;orthogonalLoop=1;jettySize=auto;html=1;" edge="1" parent="UEzPUAAOIrF-is8g5C7q-175" source="UEzPUAAOIrF-is8g5C7q-182" target="R6po1JSqciU4HGjQCoPE-18">
          <mxGeometry relative="1" as="geometry">
            <mxPoint x="299" y="-642" as="sourcePoint" />
            <mxPoint x="299" y="-420" as="targetPoint" />
          </mxGeometry>
        </mxCell>
        <mxCell id="R6po1JSqciU4HGjQCoPE-18" value="&lt;font style=&quot;font-size: 15px;&quot;&gt;Pass Text in API&lt;/font&gt;" style="text;html=1;align=center;verticalAlign=middle;resizable=0;points=[];autosize=1;strokeColor=none;fillColor=none;" vertex="1" parent="UEzPUAAOIrF-is8g5C7q-175">
          <mxGeometry x="554" y="230" width="130" height="30" as="geometry" />
        </mxCell>
      </root>
    </mxGraphModel>
  </diagram>
</mxfile>
